<svg width="259" height="45" viewBox="0 0 259 45" fill="none" xmlns="http://www.w3.org/2000/svg">
<path d="M26.8975 7.55646V43.0557H19.9694V7.55646H0V1.26562H46.8713V7.55646H26.8975Z" fill="#020202"/>
<path d="M100.557 22.1632C100.557 29.0133 97.7477 34.5541 92.1289 38.7855C89.818 40.5154 87.0953 41.8724 83.9607 42.8566C80.8218 43.8364 77.4271 44.3307 73.7723 44.3307C70.1174 44.3307 66.7011 43.8321 63.5275 42.8306C60.3539 41.8291 57.6095 40.4634 55.303 38.7335C49.6842 34.502 46.8747 28.9786 46.8747 22.1675C46.8747 15.3564 49.7232 9.96735 55.4157 5.65784C57.7612 3.88895 60.5056 2.50159 63.6402 1.50009C66.7748 0.498581 70.1521 0 73.7723 0C77.3924 0 80.7178 0.498581 83.874 1.50009C87.0303 2.50159 89.7617 3.88462 92.0725 5.65784C97.7304 9.96735 100.557 15.4691 100.557 22.1675V22.1632ZM93.3428 22.1632C93.3428 17.2987 91.2661 13.3187 87.1083 10.2275C85.4132 8.99186 83.4318 8.02504 81.1643 7.33135C78.8925 6.63767 76.43 6.2865 73.7766 6.2865C70.8502 6.2865 68.1881 6.68103 65.7819 7.47443C63.3757 8.26783 61.3077 9.36905 59.5778 10.7781C57.8479 12.1871 56.4996 13.8693 55.5371 15.816C54.5746 17.7669 54.0934 19.8827 54.0934 22.1588C54.0934 24.435 54.5573 26.6678 55.4807 28.6187C56.4042 30.5697 57.7222 32.2389 59.4347 33.6306C61.1473 35.0223 63.2153 36.1018 65.6389 36.8736C68.0624 37.6453 70.7764 38.0312 73.7766 38.0312C76.7768 38.0312 79.4822 37.6453 81.8884 36.8736C84.2946 36.1018 86.341 35.0223 88.0361 33.6306C89.727 32.2389 91.0363 30.5697 91.9598 28.6187C92.8833 26.6678 93.3472 24.5173 93.3472 22.1588L93.3428 22.1632Z" fill="#020202"/>
<path d="M106.959 43.0557V1.26562H113.888V36.7648H146.157V43.0557H106.959Z" fill="#020202"/>
<path d="M152.563 43.0557V1.26562H194.699V7.55646H159.486V18.2348H183.96V24.5257H159.486V36.7648H194.699V43.0557H152.563Z" fill="#020202"/>
<path d="M251.555 43.0557V8.88312H251.381L229.678 36.1275L208.147 8.88312H207.974V43.0557H201.046V1.26562H209.647L229.734 26.5504L249.881 1.26562H258.483V43.0557H251.555Z" fill="#020202"/>
</svg>
